<svg xmlns="http://www.w3.org/2000/svg" width="600" height="248.1" viewBox="0 0 600 248.1"><path d="M46 36.1l-2.3 29.2 52.6-9.9-5.8-28.7L46 36.1zm20.6 135.1l25.6 8.3v-25.3L52.7 148l13.9 23.2zM180.5 69.3L153.3 72l-6.6 49.7 35.1-9.3-1.3-43.1zM135 36.9l-41.2-1.6 6.3 50.3L153 70.9l-18-34zM67.7 8.6L42.9 19.7 21.2 39.2l36.2-9.8L67.7 8.6z" fill="#ffe600"/><path d="M4.2 121l13 26.2 28.8 3.3-19-35.1L4.2 121zm151.6-82.6l-12.6-13-21-10.7 4 19.2 10.8 2.3 19 35.1 22.8-5.6-13-26.1-10-1.2zm-62.1 73.2l-1.1-41.8-58.2-7.4-4.5 51.8 63.8-2.6zm54.7 7.2l-54.7 1-1.6 39.6L139 151l9.4-32.2zM300.4 0l-16.3 5.3-29.5 9.3H304L300.4 0zM117.3 178.1l24.8-11.2 21.7-19.4-36.2 9.8-10.3 20.8zM32.2 60.4L0 68.4l1.3 43.1 27.3-2.7 3.6-48.4z" fill="#f9b000"/><path d="M85 104l-52.9 14.7 17 32.4-22.1-4.7 14.7 15.2 21 10.7-4-19.2-.6-.1 33.2 1.3L85 104zm33.5-85.7L92.9 10v25.3l39.5 6.3-13.9-23.3zm24.9 105.5l-11.1 26h34.2l17.2-32.8-38.3 5 4.3-49.7-57.1-2.4-5.6 46.7 56.4 7.2zM96 184.2l18.2-7.4 20.8-21H93.8l2.2 28.4zM89 5.4l-18.2 7.4-20.8 21h41.2L89 5.4zM52.7 36.9H18.5L1.3 69.8l39.5-5.1 11.9-27.8zM0 201.1v1.2h600v-1.2H0z" fill="#ffcf21"/><path d="M220 25.9l-10.1 1.5v113.4l10.1-1.5V25.9zm91.1 103.9h-54.7V86.7h44.5v-9.2h-44.5V36.6H309l-2.4-9.3h-60v111.9H309l2.1-9.4zm217.5 44.1l-9.6-17.3-1.6 23.6h3.2l.8-13.2 7.3 13.4 6.8-13.4 1.1 13h3.3l-2.2-23.6-9.1 17.5zm-291.5 3.5c-2.1 0-4.3-.9-5.8-2.5-1.6-1.6-2.4-3.8-2.4-6.4 0-5.2 3.6-8.9 8.4-8.9 1.6 0 3 .4 4.2 1.1l-.5-3.6c-1.3-.4-2.6-.6-3.9-.6-3.2 0-6.1 1.2-8.3 3.3-2.3 2.3-3.4 5.2-3.4 8.6 0 4.3 1.8 7.8 5 10 1.9 1.3 4.2 2 6.9 2 1.5 0 2.8-.3 4.1-.8l.4-3.6c-.5.3-1 .6-1.5.8-1 .5-2 .6-3.2.6zm21.7-10.6h-11.1v-10l-3.3.3v23.2l3.3-.3v-10.3h11.1v10.6l3.3-.3v-23.3l-3.3.3v9.8zm9.5-6.9c-2.2 2.3-3.4 5.2-3.4 8.6 0 3.5 1.2 6.4 3.4 8.7 2.2 2.2 5.1 3.3 8.6 3.3s6.3-1.1 8.6-3.3c2.3-2.3 3.4-5.2 3.4-8.7 0-3.5-1.2-6.4-3.4-8.6-2.2-2.2-5-3.3-8.6-3.3-3.6 0-6.4 1.1-8.6 3.3zm17.2 8.7c0 5.3-3.7 9-8.6 9-4.9 0-8.6-3.7-8.6-9s3.7-9 8.6-9c4.9 0 8.6 3.7 8.6 9zm-62.3 5.2c0-4-2-5.6-6.2-7.2-2.6-1-4.1-1.7-4.1-3.8 0-1.8 1.4-3.2 3.4-3.2 1.6 0 2.9.8 4.4 2.4l2.1-2.3c-2-2.1-4-3.1-6.5-3.1-4 0-6.9 2.8-6.9 6.3 0 3.6 1.8 5.2 5.9 6.6 2.9 1.1 4.4 1.8 4.4 4.1 0 2.1-1.6 3.6-3.8 3.6-1.5 0-3.1-1-4.4-2.7l-2.6 2.1c1.7 2.5 4.1 3.8 7 3.8 4.4.1 7.3-2.9 7.3-6.6zm137 3.4c2.3-2.3 3.4-5.2 3.4-8.7 0-3.5-1.2-6.4-3.4-8.6-2.2-2.2-5-3.3-8.6-3.3-3.5 0-6.4 1.1-8.6 3.3-2.2 2.3-3.4 5.2-3.4 8.6 0 3.5 1.2 6.4 3.4 8.7 2.2 2.2 5.1 3.3 8.6 3.3 3.5.1 6.3-1 8.6-3.3zm-17.2-8.6c0-5.3 3.7-9 8.6-9 4.9 0 8.6 3.7 8.6 9s-3.7 9-8.6 9c-4.9-.1-8.6-3.8-8.6-9zm233.3-11.8l-3.3.3v15.3l-14.9-15.9v23.6h3.3v-15.4l14.9 15.9v-23.8zm15.9.3h-13.5l-1.1 3h5.9v20.2l3.3-.3v-19.9h5.4v-3zm-46.3 19.8v-7.4h7.5v-3h-7.5v-6.4h9.5l-.7-3h-12V180h12.6l1-3.2h-10.4zm-251.9-17c-2.2 2.3-3.4 5.2-3.4 8.6 0 3.5 1.2 6.4 3.4 8.7 2.2 2.2 5.1 3.3 8.6 3.3s6.4-1.1 8.6-3.3c2.3-2.3 3.4-5.2 3.4-8.7 0-3.5-1.2-6.4-3.4-8.6-2.2-2.2-5-3.3-8.6-3.3-3.5 0-6.4 1.1-8.6 3.3zm17.2 8.7c0 5.3-3.7 9-8.6 9-4.9 0-8.6-3.7-8.6-9s3.7-9 8.6-9c4.9 0 8.6 3.7 8.6 9zM424 156.4l-11.8 23.7h3.3l3.9-7.8h9.1l3.9 7.8h3.6l-12-23.7zm-3.2 13.2l3.2-6.5 3.2 6.5h-6.4zm60 7.7c2.2 2.2 5.1 3.3 8.6 3.3 3.3 0 6.1-1.1 8.6-3.2v-10.2h-9.1l-1.2 2.9h7.2v5.6c-1.6 1.3-3.5 1.9-5.6 1.9-4.9 0-8.4-3.7-8.4-8.9 0-5.3 3.7-9 8.6-9 2.4 0 4.4.8 6.1 2.4l2.1-2.3c-1.9-2-4.7-3.2-8.1-3.2-3.5 0-6.4 1.1-8.7 3.4-2.3 2.3-3.4 5.2-3.4 8.6s1 6.4 3.3 8.7zm-.1-47.5h-54.8V86.7h44.5v-9.2h-44.5V36.6h52.6l-2.4-9.3h-60v111.9h62.4l2.2-9.4zm-150.5 47.1h-9.5v-20.2l-3.3.3v22.9h11.7l1.1-3zm221.7-35.2c15.7 0 29.4-5.4 40.2-15.7V77.5h-42.5l-2 9.2h34.7v35c-9.3 7.2-19.6 10.6-30.6 10.6-26.3 0-48.4-20.4-48.4-49 0-28.4 22.1-49 48.5-49 11.8 0 22.6 4.1 32 12.1l6.4-7.4c-10.6-9.3-23.7-14.1-38.4-14.1-17.6 0-33 6.9-44 19.6-9.5 10.9-14.7 24.8-14.7 38.7 0 15.9 6.7 31.9 18.3 42.8 11 10.3 24.8 15.7 40.5 15.7zm-85.2 14.7l-11.9 23.7h3.4l3.8-7.8h9.1l3.9 7.8h3.6l-11.9-23.7zm-3.3 13.2l3.2-6.5 3.2 6.5h-6.4zm-8.8-12.8l-3.3.3v15.3l-14.9-15.9v23.6h3.4v-15.4l14.9 15.9v-23.8zm-75.9 3.3l-.6-3h-11.7v23.2l3.3-.3v-10.3h6.9v-3h-6.9V160h9zm-19.6-28.2c-11.3 0-20.3-5.4-27-16.2l-8 5.9c8 12.8 20.6 20 34.8 20 21.6 0 35.6-14.9 35.6-32.5 0-14.1-8.3-24-24.8-29.6-8.8-2.9-16.7-4.4-22.6-7.7-6.9-3.8-10.3-9.1-10.3-16.3 0-11.8 10.1-20.9 22.5-20.9 9.3 0 16.2 3.6 24.3 11.3l6.5-7.5C380.8 29 372 25 360.1 25c-20.2 0-33.5 14.2-33.5 30.2 0 15.7 9.2 24.3 26.5 29.6 17 5.2 31 7.9 31 25.2 0 12.4-10.3 21.9-25 21.9zm41.8 42l-9.6-17.3-1.6 23.6h3.2l.8-13.2 7.3 13.4 6.8-13.4 1.1 13h3.3l-2.2-23.6-9.1 17.5zm114.1 3h-10.2v-7.4h7.5v-3h-7.5v-6.4h9.5l-.7-3h-12.1V180h12.6l.9-3.1zM7.7 245.2c-.3.1-1.4.3-2.9.4-1.8 0-2.6-.1-2.8-.2-.2-.4 0-2.1 0-3.1v-1.6c0-.5 0-1.4.1-2.7 0-1.5.1-3.3.2-5.3h5.9c.5 0 .9-.5.9-1s-.5-.9-1-.9H2.9c-.1-.1-.3-.2-.5-.2 0-1.4.1-2.8.1-4.1 0-4 0-6-.2-7h1.5c1.2 0 3.3 0 4.4-.1.5-.1.9-.6.8-1.1-.1-.5-.5-.9-1.1-.8-1 .1-3.2 0-4.9 0H1.1c-.5 0-1 .4-1 1v.4c0 .2.1.4.3.6.5 2 .1 14.3 0 18.5 0 1.3-.1 2.3-.1 2.8s0 .9-.1 1.5c-.2 2.2-.2 3.7.5 4.4.2.3.8.8 3.3.8h1.1c.8 0 1.5-.1 2.2-.3 1.2-.2 1.4-.3 1.6-.5.4-.3.4-1 0-1.3-.4-.4-.8-.4-1.2-.2zM161.8 217c-2.9 1.3-4.3 6.2-4.6 7.3-1.5 5.3-1.7 11.2-.4 15.9.5 2.1 2 5.6 4.5 7 .5.3 1.2.4 1.8.4.5 0 1-.1 1.5-.3.5-.2.7-.8.5-1.3-.2-.5-.8-.7-1.3-.5-.5.2-1.1.2-1.7-.1-1.8-.9-3.2-3.9-3.6-5.7-1.3-4.2-1.1-10 .4-14.8.6-2.2 1.9-5.4 3.5-6.1.3-.1.8-.3 1.5.2.5.3 1 .1 1.3-.3.3-.5.1-1-.3-1.3-1-.8-2-.9-3.1-.4zm-50 .7c0-.5-.4-1-.9-1s-1 .5-1 1v.9c.3 11.1.3 20.1.1 27.8 0 .5.3.8.8 1h.2c.5 0 .8-.2.9-.7 0-.2.2-2 .1-2.8.1-7.5.1-16-.2-26.2zm-6.5 27.3c-1.2-2.9-3.6-7.9-5.9-12.6 2.3-1.1 4-2.8 5-4.9.9-2 .9-3.9.1-5.8-1.9-4.6-5.1-5-7-5.3h-.3c-.1-.2-.4-.3-.7-.3-.5 0-.9.4-.9 1v2.1c0 1.6.1 3.4.1 5.1 0 1.9.1 3.8.1 5.6v2.7c0 4.4.1 8.9-.5 13.1 0 .2-.1.3-.1.5v.4c0 .5.4.9.9 1h.1c.5 0 .8-.3.9-.8.6-4.3.7-8.7.6-13.1h.1c2.3 4.6 4.8 9.6 5.8 12.3l.4 1.2c.2.5.7.8 1.2.6.5-.2.8-.7.6-1.2-.1-.6-.3-1.1-.5-1.6zm-7.6-13.9v-1c0-1.8-.1-3.8-.1-5.7 0-2-.1-4.3-.1-6.1 1.8.2 3.9.7 5.3 4.1.6 1.4.5 2.8-.1 4.3-1.1 2.5-4.3 4.4-5 4.4zm46.4 2.2c-.1-1.5-.2-2.8-2.3-3.5-.5-.2-1.3-.1-2 0h-.8c-.2-.1-.4-.2-.6-.2-.5 0-1 .4-1 1 0 .3.1.5.4.8.5.5 1.1.4 2.1.3.4 0 1-.1 1.3 0 .7.2.8.4.9 1.8 0 .2 0 .4.1.7 0 1.5-.1 4.3-.5 6.8-.6 3.3-1.5 4.7-2.1 5-.5.2-1.2-.4-1.6-.9-4.4-4.7-2.4-17-.2-22.4.1-.3.6-1.3 1.4-2.3.8-1.1 1.3-1.4 1.6-1.5-.3.4-.2.8.2 1.2.5.3 1 .3 1.3-.2.7-.8.7-1.3 0-2.1-.5-.6-1-.9-1.7-.8-.9 0-1.9.8-3 2.3-.8 1-1.4 2.2-1.6 2.7-2.5 5.8-4.4 19.1.5 24.4 1.1 1.2 2 1.5 2.8 1.5.4 0 .7-.1 1-.2 3.7-1.5 3.8-11.9 3.8-13.7v-.3-.4zm-15.1-5.7c0-2.7-.2-7.8-.4-9.9 0-.5-.5-.9-1-.8-.5 0-1 .5-.8 1 .2 2 .4 7 .4 9.6-.1 3.8 0 7.8.1 11.6 0 1.2 0 2.5.1 3.7-.8-1.8-1.3-3.7-1.9-5.6-.2-.8-.4-1.5-.7-2.3-.1-.5-.2-.8-.4-1.3-1.3-4.5-3.5-10.6-3.8-15.1v-.8c0-.5-.5-.9-1-.9s-.9.5-.9 1l.1.9v4.3c0 .8 0 1.8-.2 2.8-.2 3.4-.6 16.3-.8 19.3-.2.7-.2 1.6 0 2.3.1.5.5.7.9.7h.1c.5-.1.8-.5.8-1v-1.6-.5c.2-2.9.5-14.6.7-17.6.7 2.5 1.6 4.8 2.3 6.9.1.5.3.8.4 1.3.2.8.5 1.5.7 2.3 1 3.3 2 6.8 3.9 9.5.3.4.6.5 1 .4.5-.1.7-.5.7-.9 0-2.5 0-5.1-.1-7.6-.2-4-.3-8-.2-11.7zm-72.5-6.3c-.3-1-.9-2.5-1.7-3.8-1.2-1.9-3.5-1.6-4.9-.6-1.6 1.2-2.5 2.8-3.1 4.2-2.2 4.8-1.6 12.8-1.4 17.3.2 3.3 1.7 9.3 5.9 9.3 3.6 0 5.4-4.4 6.1-8.1 1.1-6.5 1-12.1-.9-18.3zm-.9 18c-.5 3.1-2 6.5-4.2 6.5-2.7 0-3.8-5-4-7.5-.2-4.3-.8-12 1.2-16.4 1.3-3.4 3.3-4.7 4.6-3.1.8 1 1.2 2.4 1.5 3.3 1.8 5.8 1.9 11 .9 17.2zm515.1 5.9c-.3.1-1.4.3-2.9.4-1.8 0-2.6-.1-2.8-.2-.2-.4 0-2.1 0-3.1v-1.6c0-.5 0-1.4.1-2.7 0-1.5.1-3.3.2-5.3h5.9c.5 0 .9-.5.9-1s-.5-.9-1-.9H565.9c-.1-.1-.3-.2-.5-.2 0-1.4.1-2.8.1-4.1 0-4 0-6-.2-7h1.5c1.2 0 3.3 0 4.4-.1.5-.1.9-.6.8-1.1-.1-.5-.5-.9-1.1-.8-1 .1-3.2 0-4.9 0h-1.9c-.5 0-1 .4-1 1v.4c0 .2.1.4.3.6.5 2 .1 14.3 0 18.5 0 1.3-.1 2.3-.1 2.8s0 .9-.1 1.5c-.1 2.4-.1 3.9.6 4.6.2.3.8.8 3.3.8h1.1c.8 0 1.5-.1 2.2-.3 1.2-.2 1.4-.3 1.6-.5.4-.3.4-1 0-1.3-.5-.6-.8-.6-1.3-.4zm-542.6-9c0-1.1 0-2.1-.2-3.3-.2-1.8-.2-3.5-.3-5.2-.1-3.5-.2-6.7-1.2-10.4-.1-.5-.6-.7-1-.7-.5.1-.8.5-.8 1v.3c-1.6 4.9-2.3 9.5-3.2 14.5l-.1.5-.4 1.8-1 4.8c-.2-1.2-.4-2.3-.5-3.3-.7-6.4-2.3-13.1-3.6-19-.1-.5-.5-.8-1-.7-.5 0-.8.5-.9.9-.1 2.5-.3 5-.5 7.7s-.4 5.4-.5 8c0 2.1-.2 4.2-.4 6.5s-.4 4.6-.4 7c0 .5.4.9.9.9s.9-.4 1-1v-.9-.2c0-1.9.2-3.8.4-5.7.2-2.2.4-4.5.4-6.7.1-2.7.3-5.3.5-8l.1-1.1c.9 4.1 1.7 8.4 2.1 12.4v.1c.5 3 1.1 6.3 1.3 10 0 .5.4.8.9.8s.9-.4 1-.9c.5-3.7 1.3-7.8 2.1-11.5.2-.6.3-1.2.4-1.8l.1-.6c.7-3.9 1.2-7.2 2.1-10.7.3 2 .3 3.9.4 5.9 0 1.7.1 3.4.3 5.3 0 1 0 2.1.2 3.2.1 3.2.2 6.5 1 9.5 0 .5.2.9.5 1.2.3.3.8.4 1.1.2.5-.3.6-.7.5-1.1 0-.2-.3-1.3-.4-1.5-.7-2.6-.8-5.4-.9-8.2zm7.5-19.1c0-.1-.2-.2-.3-.3-.3-.1-.4-.1-.6-.2h-.2c-.3-.3-.6-.4-1-.2-.3.1-.5.3-.5.6-.1.1-.2.3-.2.5v.2c.1.8.1 1.1.1 1.6v.8c.3 4 .5 7.9.3 11.9V238.8c0 2.2 0 4.4-.3 6.5-.1.2-.2.4-.2.6v.7c0 .5.4.9.9 1h.1c.5 0 .8-.3.9-.8.5-2.8.6-5.7.5-8.5 2.5-1.1 4.7-3.8 5-4.5 1.8-3 2.1-6.6.9-10.5-.8-2.3-2.4-4.8-5.4-6.2zm2.8 15.8c-.6 1-2.1 2.5-3.4 3.3 0-1.4-.1-2.8 0-4.2.1-4 0-8-.3-12v-1l.2-.3c1.8 1 3.3 2.5 4.2 5.2.6 2.1 1.4 5.7-.7 9zM77.3 217c-.5 0-1 .4-1 1 0 2.3-.1 4.6-.3 6.8l-.1 1.8c-.2 3-.5 5.8-.8 8.6l-.6 5.4v.4l-.4-2.1c-.2-.8-.3-1.6-.5-2.6-.9-6.1-1.4-11.5-2.2-18.4 0-.5-.3-.8-.9-.8-.5 0-.8.3-1 .8-.8 3.3-1 6-1.3 9-.1.7-.1 1.4-.2 2.2-.3 2.1-.8 4.2-1.3 6.5l-.8 4.1v-.4c-.9-6.5-2.2-16.1-2.3-20.5v-1.3c0-.5-.4-1-.9-1s-1 .4-1 .9v1.5c.1 4.5 1.4 13.6 2.3 20.6.5 3.2.8 6 .9 7.4 0 .5.5.9 1 .9s.9-.4.9-.9c.3-3.6 1-7.3 1.8-10.9.5-2.2 1-4.4 1.3-6.6.1-.8.2-1.6.2-2.3.1-.6.1-1.2.2-1.8.5 3.9.9 7.5 1.4 11.3l.5 2.6c.3 1.4.5 2.8.9 5.3 0 .3 0 .5.2.8.1.5.2.8.2 1.3s.3.8.8.9c.5.1.9-.1 1-.6.6-1.5.8-3.3 1-5.1 0-.3.1-.6.1-1l.6-5.4c.3-2.8.6-5.7.8-8.7l.1-1.8c.2-2.3.3-4.6.3-6.9 0-.6-.4-1-.9-1zM90 245.2c-.3.1-1.4.3-2.9.4-1.8 0-2.6-.1-2.8-.2-.2-.4 0-2.1 0-3.1v-1.6c0-.5 0-1.4.1-2.7 0-1.5.1-3.3.2-5.3h5.9c.5 0 .9-.5.9-1s-.5-.9-1-.9H85.2c-.1-.1-.3-.2-.5-.2 0-1.4.1-2.8.1-4.1 0-4 0-6-.2-7h1.5c1.2 0 3.3 0 4.4-.1.5-.1.9-.6.8-1.1-.1-.5-.5-.9-1.1-.8-1 .1-3.2 0-4.9 0h-1.9c-.5 0-1 .4-1 1v.4c0 .2.1.4.3.6.5 2 .1 14.3 0 18.5 0 1.3-.1 2.3-.1 2.8s0 .9-.1 1.5c-.1 2.4-.1 3.9.6 4.6.2.3.8.8 3.3.8h1.1c.8 0 1.5-.1 2.2-.3 1.2-.2 1.4-.3 1.6-.5.4-.3.4-1 0-1.3-.5-.6-.8-.6-1.3-.4zm170-9c0-1.1 0-2.1-.2-3.3-.2-1.8-.2-3.5-.3-5.2-.1-3.5-.2-6.7-1.2-10.4-.1-.5-.6-.7-1-.7-.5.1-.8.5-.8 1v.3c-1.6 4.9-2.3 9.5-3.2 14.5l-.1.5-.4 1.8-1 4.8c-.2-1.2-.4-2.3-.5-3.3-.7-6.4-2.3-13.1-3.6-19-.1-.5-.5-.8-1-.7-.5 0-.8.5-.9.9-.1 2.5-.3 5-.5 7.7s-.4 5.4-.5 8c0 2.1-.2 4.2-.4 6.5s-.4 4.6-.4 7c0 .5.4.9.9.9s.9-.4 1-1v-.9-.2c0-1.9.2-3.8.4-5.7.2-2.2.4-4.5.4-6.7.1-2.7.3-5.3.5-8l.1-1.1c.9 4.1 1.7 8.4 2.1 12.4v.1c.5 3 1.1 6.3 1.3 10 0 .5.4.8.9.8s.9-.4 1-.9c.5-3.7 1.3-7.8 2.1-11.5.2-.6.3-1.2.4-1.8l.1-.6c.7-3.9 1.2-7.2 2.1-10.7.3 2 .3 3.9.4 5.9 0 1.7.1 3.4.3 5.3 0 1 0 2.1.2 3.2.1 3.2.2 6.5 1 9.5 0 .5.2.9.5 1.2.3.3.8.4 1.1.2.5-.3.6-.7.5-1.1 0-.2-.3-1.3-.4-1.5-.7-2.6-.8-5.4-.9-8.2zm125.8 8.8c-1.2-2.9-3.6-7.9-5.9-12.6 2.3-1.1 4-2.8 5-4.9.9-2 .9-3.9.1-5.8-1.9-4.6-5.1-5-7-5.3h-.3c-.1-.2-.4-.3-.7-.3-.5 0-.9.4-.9 1v2.1c0 1.6.1 3.4.1 5.1 0 1.9.1 3.8.1 5.6v2.7c0 4.4.1 8.9-.5 13.1 0 .2-.1.3-.1.5v.4c0 .5.4.9.9 1h.1c.5 0 .8-.3.9-.8.6-4.3.7-8.7.6-13.1h.1c2.3 4.6 4.8 9.6 5.8 12.3l.4 1.2c.2.5.7.8 1.2.6.5-.2.8-.7.6-1.2-.1-.6-.3-1.1-.5-1.6zm-7.6-13.9v-1c0-1.8-.1-3.8-.1-5.7 0-2-.1-4.3-.1-6.1 1.8.2 3.9.7 5.3 4.1.6 1.4.5 2.8-.1 4.3-1.1 2.5-4.3 4.4-5 4.4zm138.2-1.3c-.5-.6-1-1.1-1.7-1.6-1.5-1.3-2.8-2.6-3-4.5-.2-1.8 1.7-4 3.5-4.4 1.5-.3 1.9.6 2.1 1 .2.5.8.7 1.3.5.5-.2.7-.7.5-1.2-.7-1.8-2.3-2.6-4.3-2.2-2.7.7-5.3 3.6-4.9 6.5.3 2.7 2.1 4.2 3.7 5.7.5.5 1 .9 1.5 1.4 1.3 1.6 2.8 3.5 3.6 5.3 1.5 3.7-.6 7.8-2.7 9.1-.8.5-1.6.7-2.3.4-.6-.3-1.1-.9-1.3-1.6-.1-.5-.6-.9-1.1-.8-.5.1-.9.6-.8 1.1.2 1.3 1.1 2.6 2.4 3.1.5.2 1 .3 1.5.3.9 0 1.8-.3 2.6-.8 2.6-1.8 5.3-6.7 3.3-11.4-.8-2.2-2.4-4.2-3.9-5.9zm-105.8 15.6c-.5-1.5-.7-2.9-1-4.4l-.1-.3c-.1-.6-.2-1.1-.3-1.7-.2-1-.4-1.8-.5-2.8.1-.2.2-.4.2-.5 0-.3-.1-.5-.4-.8-.3-1.8-.6-3.5-.9-5.2v-.1l-1.1-4.9c-.3-1.6-.7-3.2-1-4.9v-.1c-.1-.3-.3-2.8-1.3-2.8-.5 0-1 .4-1 1v.7c-.2 1-.4 2.2-.5 3.4-.1.5-.2 1-.2 1.3-.7 3.7-1.5 7.4-2.3 10.9-.3 1.1-.5 2.3-.8 3.4-.2.6-.4 1.4-.5 2.2-.5 1.8-1 3.9-1.5 5.4-.2.2-.3.4-.3.7v.3c0 .2-.1.3-.1.3-.1.5.1 1 .6 1.2h.3c.4 0 .7-.2.9-.5 0-.1.1-.3.2-.5.5-1.5 1.1-4.1 1.8-6.4.2-.8.4-1.5.5-2.2.1-.4.2-.8.3-1.1h1.1c1 0 1.8 0 2.8-.1.5 0 1-.1 1.6-.1l.5 2.7.3 1.6v.3c.3 1.9.8 4 1.6 6 .2.4.5.5.9.5h.2c.5-.1.8-.5.8-1s0-.9-.4-1.4l-.4-.1zm-5.5-10.6c-.9 0-1.8.1-2.6.1h-.5-.1c0-.2.1-.2.1-.3.8-3.5 1.7-7.2 2.3-10.9l.3 1.5 1 4.9.8 4.8c-.4-.1-.8-.1-1.3-.1zm131.1-13.5c-.3-1-.9-2.5-1.7-3.8-1.2-1.9-3.5-1.6-4.9-.6-1.6 1.2-2.5 2.8-3.1 4.2-2.2 4.8-1.6 12.8-1.4 17.3.2 3.3 1.7 9.3 5.9 9.3 3.6 0 5.4-4.4 6.1-8.1 1-6.5.9-12.1-.9-18.3zm-1 18c-.5 3.1-2 6.5-4.2 6.5-2.7 0-3.9-5-4-7.5-.2-4.3-.8-12 1.2-16.4 1.3-3.4 3.3-4.7 4.6-3.1.8 1 1.2 2.4 1.5 3.3 1.8 5.8 1.9 11 .9 17.2zM354 216.8c-1.2.1-2.4.1-3.5 0h-2.7c-.3 0-1.1 0-1.3.8 0 .3 0 .5.1.7v5.1c0 2.1 0 4.1-.1 6.2v.5c-.1 1.7-.1 3.3-.2 4.9-.1 3.9-.3 7.8-.3 11.8 0 .5.4.9 1 .9.5 0 1-.4 1-.9 0-3.9.1-7.8.3-11.7 0-1.5 0-2.8.2-4.3.6 0 1.3 0 2 .1l2.6.1c.5 0 1-.4 1-1 0-.5-.4-1-.9-1-.6 0-1.6 0-2.6-.1-.7 0-1.4 0-2.1-.1 0-1.8.1-3.7.1-5.5v-4.7H350.5c1.2 0 2.5.1 3.8 0 .5 0 .9-.5.8-1-.1-.5-.6-.8-1.1-.8zm15.7 4.5c-.3-1-.9-2.5-1.7-3.8-1.2-1.9-3.5-1.6-4.9-.6-1.6 1.2-2.5 2.8-3.1 4.2-2.2 4.8-1.6 12.8-1.4 17.3.2 3.3 1.7 9.3 5.9 9.3 3.6 0 5.4-4.4 6.1-8.1 1.1-6.5.9-12.1-.9-18.3zm-1 18c-.5 3.1-2 6.5-4.2 6.5-2.7 0-3.9-5-4-7.5-.2-4.3-.8-12 1.2-16.4 1.3-3.4 3.3-4.7 4.6-3.1.8 1 1.2 2.4 1.5 3.3 1.8 5.8 2 11 .9 17.2zm103-22.2c-3.1.2-5.1.2-7.7.1h-2.7c-.5 0-1 .4-1 1 0 .5.4.9 1 .9.9 0 1.7 0 2.6.1h1.8c-.1 1.5 0 5.3.2 11.9.1 5.7.4 12.2.3 15.8 0 .5.4 1 .9 1s1-.4 1-.9c.1-3.7-.1-10.1-.3-15.9-.2-4.6-.2-9.5-.2-11.3 0-.1.1-.2.1-.4v-.2c1.7 0 2.8 0 4.5-.2.5-.1.9-.6.8-1.2-.3-.4-.8-.7-1.3-.7zm-44 13.5c1.8-1.7 3.2-4 3-6.4-.2-3.2-2.2-5.6-5.1-6.9-.5-.1-1.8-.8-2.2.1v.3c0 2.2.1 4.3.2 6.4.2 2.8.3 5.5.2 8.4l-.3 4.5c-.1 1.5-.4 5.4-.4 5.9v2.1c0 .2.1 1.7.1 1.9.1.3.4.7 1 .7h.1c5.2-.2 8.1-5.2 8.1-9.6 0-2-.6-3.8-1.6-5.2-1-1.1-1.9-1.8-3.1-2.2zm1.1-6.3c.2 2.1-1.2 4.1-3.1 5.5 0-2-.1-3.9-.3-5.8-.1-1.5-.2-3.1-.2-4.8 1.9 1.3 3.4 2.7 3.6 5.1zm-4 21.3c-.1 0 .1-3.9.1-3.9l.3-4.5.3-4.5v-.6c3.4.3 4.7 3.2 4.7 5.9.1 3.3-1.7 7-5.4 7.6zM547.9 217c-2.9 1.3-4.3 6.2-4.6 7.3-1.5 5.3-1.7 11.2-.4 15.9.5 2.1 2 5.6 4.5 7 .5.3 1.2.4 1.8.4.5 0 1-.1 1.5-.3.5-.2.7-.8.5-1.3-.2-.5-.8-.7-1.3-.5-.5.2-1.1.2-1.7-.1-1.8-.9-3.2-3.9-3.6-5.7-1.3-4.2-1.1-10 .4-14.8.6-2.2 1.9-5.4 3.5-6.1.3-.1.8-.3 1.5.2.5.3 1 .1 1.3-.3.3-.5.1-1-.3-1.3-1-.8-2.1-.9-3.1-.4zm-90.1.1c-3.1.2-5.1.2-7.7.1h-2.7c-.5 0-1 .4-1 1 0 .5.4.9 1 .9.9 0 1.7 0 2.6.1h1.8c-.1 1.5 0 5.3.2 11.9.1 5.7.4 12.2.3 15.8 0 .5.4 1 .9 1s1-.4 1-.9c.1-3.7-.1-10.1-.3-15.9-.2-4.6-.2-9.5-.2-11.3 0-.1.1-.2.1-.4v-.2c1.7 0 2.8 0 4.5-.2.5-.1.9-.6.8-1.2-.3-.4-.8-.7-1.3-.7zm40.9 27.9c-1.2-2.9-3.6-7.9-5.9-12.6 2.3-1.1 4-2.8 5-4.9.9-2 .9-3.9.1-5.8-1.9-4.6-5.1-5-7-5.3h-.3c-.1-.2-.4-.3-.7-.3-.5 0-.9.4-.9 1v2.1c0 1.6.1 3.4.1 5.1 0 1.9.1 3.8.1 5.6v2.7c0 4.4.1 8.9-.5 13.1 0 .2-.1.3-.1.5v.4c0 .5.4.9.9 1h.1c.5 0 .8-.3.9-.8.6-4.3.7-8.7.6-13.1h.1c2.3 4.6 4.8 9.6 5.8 12.3l.4 1.2c.2.5.7.8 1.2.6.5-.2.8-.7.6-1.2-.2-.6-.3-1.1-.5-1.6zm-7.6-13.9v-1c0-1.8-.1-3.8-.1-5.7 0-2-.1-4.3-.1-6.1 1.8.2 3.9.7 5.3 4.1.6 1.4.5 2.8-.1 4.3-1.1 2.5-4.3 4.4-5 4.4zm-48 14.1c-.3.1-1.4.3-2.9.4-1.8 0-2.6-.1-2.8-.2-.2-.4 0-2.1 0-3.1v-1.6c0-.5 0-1.4.1-2.7 0-1.5.1-3.3.2-5.3h5.9c.5 0 .9-.5.9-1s-.5-.9-1-.9H438.3c-.1-.1-.3-.2-.5-.2 0-1.4.1-2.8.1-4.1 0-4 0-6-.2-7h1.5c1.2 0 3.3 0 4.4-.1.5-.1.9-.6.8-1.1-.1-.5-.5-.9-1.1-.8-1 .1-3.2 0-4.9 0h-1.9c-.5 0-1 .4-1 1v.4c0 .2.1.4.3.6.5 2 .1 14.3 0 18.5 0 1.3-.1 2.3-.1 2.8s0 .9-.1 1.5c-.1 2.4-.1 3.9.6 4.6.2.3.8.8 3.3.8h1.1c.8 0 1.5-.1 2.2-.3 1.2-.2 1.4-.3 1.6-.5.4-.3.4-1 0-1.3-.5-.6-.9-.6-1.3-.4zm-153.3-5.1c-.2-.5-.5-.9-.8-1.4-1-1.9-2.1-4.3-3.4-6 1.3-1.8 2.4-3.7 3.4-6.1l.9-2.5c.9-2.2 1.8-4.4 2.1-6.7 0-.5-.3-1-.8-1.1-.5 0-.9.3-1 .8-.3 2-1.1 4.1-1.9 6.2l-1 2.5c-.8 2.1-1.8 3.8-2.9 5.3-.1-.1-.2-.2-.3-.2v-.8c0-1.3-.1-2.8-.1-4.1v-8.6c0-.5-.4-1-.9-1s-1 .4-1 1v8.6c0 1.4 0 2.8.1 4.2.1 2.8.2 5.6-.1 8.3-.1.9-.1 2-.2 3.2 0 1.8-.1 3.7-.3 4.7-.1.5.2 1 .7 1.1h.2c.5 0 .8-.3.9-.8.3-1.1.3-3.1.4-5 0-1.2 0-2.3.1-3.1.2-1.7.2-3.4.2-5.1 1.1 1.7 2.4 4 3.3 5.8.3.5.5 1 .8 1.4 2.1 4.1 4.6 6.5 4.6 6.6.2.2.4.3.7.3.3 0 .5-.1.7-.3.4-.4.4-1 0-1.3-.1.2-2.5-2.1-4.4-5.9zm-50.2 5.1c-.3.1-1.4.3-2.9.4-1.8 0-2.6-.1-2.8-.2-.2-.4 0-2.1 0-3.1v-1.6c0-.5 0-1.4.1-2.7 0-1.5.1-3.3.2-5.3h5.9c.5 0 .9-.5.9-1s-.5-.9-1-.9H234.8c-.1-.1-.3-.2-.5-.2 0-1.4.1-2.8.1-4.1 0-4 0-6-.2-7h1.5c1.2 0 3.3 0 4.4-.1.5-.1.9-.6.8-1.1-.1-.5-.5-.9-1.1-.8-1 .1-3.2 0-4.9 0H233c-.5 0-1 .4-1 1v.4c0 .2.1.4.3.6.5 2 .1 14.3 0 18.5 0 1.3-.1 2.3-.1 2.8s0 .9-.1 1.5c-.1 2.4-.1 3.9.6 4.6.2.3.8.8 3.3.8h1.1c.8 0 1.5-.1 2.2-.3 1.2-.2 1.4-.3 1.6-.5.4-.3.4-1 0-1.3-.5-.6-.9-.6-1.3-.4zm-11.4-11.9c-.1-1.5-.3-2.8-2.3-3.5-.5-.2-1.3-.1-2 0h-.8c-.2-.1-.4-.2-.6-.2-.5 0-1 .4-1 1 0 .3.1.5.4.8.5.5 1.1.4 2.1.3.4 0 1-.1 1.3 0 .7.2.8.4.9 1.8 0 .2 0 .4.1.7 0 1.5-.1 4.3-.5 6.8-.6 3.3-1.5 4.7-2.1 5-.5.2-1.2-.4-1.6-.9-4.4-4.7-2.4-17-.2-22.4.1-.3.6-1.3 1.4-2.3.8-1.1 1.3-1.4 1.6-1.5-.3.4-.2.8.2 1.2.5.3 1 .3 1.3-.2.7-.8.7-1.3 0-2.1-.5-.6-1-.9-1.7-.8-.9 0-1.9.8-3 2.3-.8 1-1.4 2.2-1.6 2.7-2.5 5.8-4.4 19.1.5 24.4 1.1 1.2 2 1.5 2.8 1.5.4 0 .7-.1 1-.2 3.7-1.5 3.8-11.9 3.8-13.7v-.3c.1-.1 0-.3 0-.4zm329.3-15.6c0-.5-.4-1-.9-1s-1 .5-1 1v.9c.3 11.1.3 20.1.1 27.8 0 .5.3.8.8 1h.2c.5 0 .8-.2.9-.7 0-.2.2-2 .1-2.8.1-7.5.1-16-.2-26.2zm-74.1 27.5c-.3.1-1.4.3-2.9.4-1.8 0-2.6-.1-2.8-.2-.2-.4 0-2.1 0-3.1v-1.6c0-.5 0-1.4.1-2.7 0-1.5.1-3.3.2-5.3h5.9c.5 0 .9-.5.9-1s-.5-.9-1-.9H478.6c-.1-.1-.3-.2-.5-.2 0-1.4.1-2.8.1-4.1 0-4 0-6-.2-7h1.5c1.2 0 3.3 0 4.4-.1.5-.1.9-.6.8-1.1-.1-.5-.5-.9-1.1-.8-1 .1-3.2 0-4.9 0h-1.9c-.5 0-1 .4-1 1v.4c0 .2.1.4.3.6.5 2 .1 14.3 0 18.5 0 1.3-.1 2.3-.1 2.8s0 .9-.1 1.5c-.1 2.4-.1 3.9.6 4.6.2.3.8.8 3.3.8h1.1c.8 0 1.5-.1 2.2-.3 1.2-.2 1.4-.3 1.6-.5.4-.3.4-1 0-1.3-.5-.6-.9-.6-1.3-.4zm-270.2-17.6c0-2.7-.2-7.8-.4-9.9 0-.5-.5-.9-1-.8-.5 0-1 .5-.8 1 .2 2 .4 7 .4 9.6-.1 3.8 0 7.8.1 11.6 0 1.2 0 2.5.1 3.7-.8-1.8-1.3-3.7-1.9-5.6-.2-.8-.4-1.5-.7-2.3-.1-.5-.3-.8-.4-1.3-1.3-4.5-3.5-10.6-3.8-15.1v-.8c0-.5-.5-.9-1-.9s-.9.5-.9 1l.1.9v4.3c0 .8 0 1.8-.2 2.8-.2 3.4-.6 16.3-.8 19.3-.2.7-.2 1.6 0 2.3.1.5.5.7.9.7h.1c.5-.1.8-.5.8-1v-1.6-.5c.2-2.9.5-14.6.7-17.6.7 2.5 1.6 4.8 2.3 6.9.1.5.3.8.4 1.3.2.8.5 1.5.7 2.3 1 3.3 2 6.8 3.9 9.5.3.4.6.5 1 .4.5-.1.7-.5.7-.9 0-2.5 0-5.1-.1-7.6-.3-4-.4-8-.2-11.7zm116 2.2c-.5-.6-1-1.1-1.7-1.6-1.5-1.3-2.8-2.6-3-4.5-.2-1.8 1.7-4 3.5-4.4 1.5-.3 1.9.6 2.1 1 .2.5.8.7 1.3.5.5-.2.7-.7.5-1.2-.7-1.8-2.3-2.6-4.3-2.2-2.7.7-5.3 3.6-4.9 6.5.3 2.7 2.1 4.2 3.7 5.7.5.5 1 .9 1.5 1.4 1.3 1.6 2.8 3.5 3.6 5.3 1.5 3.7-.6 7.8-2.7 9.1-.8.5-1.6.7-2.3.4-.6-.3-1.1-.9-1.3-1.6-.1-.5-.6-.9-1.1-.8-.5.1-.9.6-.8 1.1.2 1.3 1.1 2.6 2.4 3.1.5.2 1 .3 1.5.3.9 0 1.8-.3 2.6-.8 2.6-1.8 5.3-6.7 3.4-11.4-.9-2.2-2.5-4.2-4-5.9zm-130.9 15.6c-.5-1.5-.7-2.9-1-4.4l-.1-.3c-.1-.6-.2-1.1-.3-1.7-.2-1-.4-1.8-.5-2.8.1-.2.2-.4.2-.5 0-.3-.1-.5-.4-.8-.3-1.8-.6-3.5-.9-5.2v-.1l-1.1-4.9c-.3-1.6-.7-3.2-1-4.9v-.1c-.1-.3-.3-2.8-1.3-2.8-.5 0-1 .4-1 1v.7c-.2 1-.4 2.2-.5 3.4-.1.5-.2 1-.2 1.3-.7 3.7-1.5 7.4-2.3 10.9-.3 1.1-.5 2.3-.8 3.4-.2.6-.4 1.4-.5 2.2-.5 1.8-1 3.9-1.5 5.4-.2.2-.3.4-.3.7v.3c0 .2-.1.3-.1.3-.1.5.1 1 .6 1.2h.3c.4 0 .7-.2.9-.5 0-.1.1-.3.2-.5.5-1.5 1.1-4.1 1.8-6.4.2-.8.4-1.5.5-2.2.1-.4.2-.8.3-1.1h1.1c1 0 1.8 0 2.8-.1.5 0 1-.1 1.6-.1l.5 2.7.3 1.6v.3c.3 1.9.8 4 1.6 6 .2.4.5.5.9.5h.2c.5-.1.8-.5.8-1s0-.9-.4-1.4l-.4-.1zm-5.5-10.6c-.9 0-1.8.1-2.6.1h-.5-.1c0-.2.1-.2.1-.3.8-3.5 1.7-7.2 2.3-10.9l.3 1.5 1 4.9.8 4.8c-.4-.1-.8-.1-1.3-.1zM319.9 245c-.1 0-.1 0 0 0-1.2-2.9-3.6-7.9-5.9-12.6 2.3-1.1 4-2.8 5-4.9.9-2 .9-3.9.1-5.8-1.9-4.6-5.1-5-7-5.3h-.3c-.1-.2-.4-.3-.7-.3-.5 0-.9.4-.9 1v2.1c0 1.6.1 3.4.1 5.1 0 1.9.1 3.8.1 5.6v2.7c0 4.4.1 8.9-.5 13.1 0 .2-.1.3-.1.5v.4c0 .5.4.9.9 1h.1c.5 0 .8-.3.9-.8.6-4.3.7-8.7.6-13.1h.1c2.3 4.6 4.8 9.6 5.8 12.3l.4 1.2c.2.5.7.8 1.2.6.5-.2.8-.7.6-1.2-.2-.6-.3-1.1-.5-1.6zm-7.7-13.9v-1c0-1.8-.1-3.8-.1-5.7 0-2-.1-4.3-.1-6.1 1.8.2 3.9.7 5.3 4.1.6 1.4.5 2.8-.1 4.3-1.1 2.5-4.3 4.4-5 4.4zm-7.6 14.1c-.3.1-1.4.3-2.9.4-1.8 0-2.6-.1-2.8-.2-.2-.4 0-2.1 0-3.1v-1.6c0-.5 0-1.4.1-2.7 0-1.5.1-3.3.2-5.3h5.9c.5 0 .9-.5.9-1s-.5-.9-1-.9H299.8c-.1-.1-.3-.2-.5-.2 0-1.4.1-2.8.1-4.1 0-4 0-6-.2-7h1.5c1.2 0 3.3 0 4.4-.1.5-.1.9-.6.8-1.1-.1-.5-.5-.9-1.1-.8-1 .1-3.2 0-4.9 0H298c-.5 0-1 .4-1 1v.4c0 .2.1.4.3.6.5 2 .1 14.3 0 18.5 0 1.3-.1 2.3-.1 2.8s0 .9-.1 1.5c-.1 2.4-.1 3.9.6 4.6.2.3.8.8 3.3.8h1.1c.8 0 1.5-.1 2.2-.3 1.2-.2 1.4-.3 1.6-.5.4-.3.4-1 0-1.3-.5-.6-.9-.6-1.3-.4zm-27.2.2c-.5-1.5-.7-2.9-1-4.4l-.1-.3c-.1-.6-.2-1.1-.3-1.7-.2-1-.4-1.8-.5-2.8.1-.2.2-.4.2-.5 0-.3-.1-.5-.4-.8-.3-1.8-.6-3.5-.9-5.2v-.1l-1.1-4.9c-.3-1.6-.7-3.2-1-4.9v-.1c-.1-.3-.3-2.8-1.3-2.8-.5 0-1 .4-1 1v.7c-.2 1-.4 2.2-.5 3.4-.1.5-.2 1-.2 1.3-.7 3.7-1.5 7.4-2.3 10.9-.3 1.1-.5 2.3-.8 3.4-.2.6-.4 1.4-.5 2.2-.5 1.8-1 3.9-1.5 5.4-.2.2-.3.4-.3.7v.3c0 .2-.1.3-.1.3-.1.5.1 1 .6 1.2h.3c.4 0 .7-.2.9-.5 0-.1.1-.3.2-.5.5-1.5 1.1-4.1 1.8-6.4.2-.8.4-1.5.5-2.2.1-.4.2-.8.3-1.1h1.1c1 0 1.8 0 2.8-.1.5 0 1-.1 1.6-.1l.5 2.7.3 1.6v.3c.3 1.9.8 4 1.6 6 .2.4.5.5.9.5h.2c.5-.1.8-.5.8-1s0-.9-.4-1.4l-.4-.1zm-5.5-10.6c-.9 0-1.8.1-2.6.1h-.5-.1c0-.2.1-.2.1-.3.8-3.5 1.7-7.2 2.3-10.9l.3 1.5 1 4.9.8 4.8c-.5-.1-.9-.1-1.3-.1zm-91.7-17.1c0-.5-.4-1-1-1-.5 0-1 .4-1 1v.6l.1 10.7h-6.5-.3v-2.1c-.1-3.1-.2-6.3-.2-9.3 0-.5-.4-1-1-1-.5 0-1 .4-1 1v.8l.2 8.5c.2 6.7.3 13.5-.2 19.7 0 .5.3.9.9 1h.1c.5 0 .9-.4.9-.9.5-5.2.5-10.5.3-15.9 1.2 0 4.1-.1 6.8-.1v1.3c0 4.4.1 8.7.1 13.1-.2.5-.1.8 0 1.1v.3c0 .5.4.9 1 .9.5 0 .9-.4.9-.9 0-4.9 0-9.8-.1-14.5v-14.3zm405.2-.6c-3.1.2-5.1.2-7.7.1H575c-.5 0-1 .4-1 1 0 .5.4.9 1 .9.9 0 1.7 0 2.6.1h1.8c-.1 1.5 0 5.3.2 11.9.1 5.7.4 12.2.3 15.8 0 .5.4 1 .9 1s1-.4 1-.9c.1-3.7-.1-10.1-.3-15.9-.2-4.6-.3-9.5-.3-11.3 0-.1.1-.2.1-.4v-.2c1.7 0 2.8 0 4.5-.2.5-.1.9-.6.8-1.2-.2-.4-.7-.7-1.2-.7zm12 8.1c1.1-2.7 2.1-5.1 2.6-7.4.1-.5-.2-1-.7-1.1-.5-.1-1 .2-1.2.7-.5 2.1-1.5 4.6-2.5 7.1-.8 2-1.6 3.9-2.2 5.9-.5-1.5-1-3-1.4-4.4-.8-2.6-1.6-4.9-2.2-7.4 0-.1.1-.2.1-.3 0-.4-.2-.7-.3-.8-.1-.5-.5-.8-1-.8s-.9.5-.9 1v.3c.5 2.9 1.5 5.8 2.5 8.7.8 2.6 1.7 5.3 2.3 8v1.7c.1 3 .3 6.3 0 9.4-.1.1-.1.3-.1.4v.7c0 .5.4.9.9.9s.9-.3.9-.8c.5-3.5.3-7.3.1-10.7v-1.7c0-.7.1-.7.1-1 .8-2.9 1.9-5.7 3-8.4z" fill="#14133b"/></svg>